<?xml version="1.0" encoding="UTF-8" standalone="no"?>
<!-- Created with Inkscape (http://www.inkscape.org/) -->

<svg
   width="64"
   height="64"
   viewBox="0 0 16.933333 16.933333"
   version="1.1"
   id="svg1"
   inkscape:version="1.3.2 (091e20e, 2023-11-25, custom)"
   sodipodi:docname="user.svg"
   xmlns:inkscape="http://www.inkscape.org/namespaces/inkscape"
   xmlns:sodipodi="http://sodipodi.sourceforge.net/DTD/sodipodi-0.dtd"
   xmlns="http://www.w3.org/2000/svg"
   xmlns:svg="http://www.w3.org/2000/svg">
  <sodipodi:namedview
     id="namedview1"
     pagecolor="#ffffff"
     bordercolor="#000000"
     borderopacity="0.25"
     inkscape:showpageshadow="2"
     inkscape:pageopacity="0.0"
     inkscape:pagecheckerboard="0"
     inkscape:deskcolor="#d1d1d1"
     inkscape:document-units="mm"
     showgrid="false"
     inkscape:zoom="4"
     inkscape:cx="74.5"
     inkscape:cy="48.875"
     inkscape:window-width="1920"
     inkscape:window-height="1017"
     inkscape:window-x="-8"
     inkscape:window-y="-8"
     inkscape:window-maximized="1"
     inkscape:current-layer="layer1" />
  <defs
     id="defs1" />
  <g
     inkscape:label="Layer 1"
     inkscape:groupmode="layer"
     id="layer1">
    <path
       d="m 0.5953132,8.6651038 q 0,1.5922642 0.6244166,3.0284242 0.6244168,1.436155 1.6547043,2.497664 1.0302871,1.061511 2.4976666,1.670314 1.467379,0.608808 3.0284208,0.608808 1.5610421,0 3.0284195,-0.608808 1.46738,-0.608803 2.497667,-1.670314 1.030289,-1.061509 1.654705,-2.497664 0.624417,-1.43616 0.624417,-3.0284242 0,-1.5922616 -0.624417,-3.0284208 Q 14.956897,4.2005278 13.926608,3.1390172 12.896321,2.077508 11.444552,1.4843126 9.9927836,0.89111725 8.4005215,0.85989686 q -1.5922626,0 -3.0284208,0.62441574 Q 3.9359422,2.108727 2.8744341,3.1390172 1.8129257,4.1693034 1.2197298,5.636683 0.62653413,7.1040626 0.5953132,8.6651038 Z m 1.9513021,0 q 0,-1.5922616 0.780521,-2.9347569 Q 4.1076568,4.3878528 5.4657633,3.6073283 6.8238692,2.826808 8.4005215,2.8111998 9.9771736,2.795592 11.335279,3.6073283 q 1.358106,0.8117436 2.138626,2.1230186 0.780523,1.311275 0.780523,2.9347569 0,1.6234842 -0.780523,2.9503712 -0.78052,1.326883 -2.138626,2.123016 -1.3581054,0.796132 -2.9347575,0.78052 -1.5766523,-0.01561 -2.9347582,-0.78052 -1.3581065,-0.764913 -2.138627,-2.123016 -0.780521,-1.358107 -0.780521,-2.9503712 z m 2.9347585,3.4186812 q 0,0.28099 0.1092724,0.561975 1.2644441,0.905406 2.8098752,0.905406 1.545431,0 2.8098756,-0.905406 0.124878,-0.280985 0.124878,-0.561975 Q 11.210397,11.42815 10.804526,10.881783 10.398655,10.335421 9.8054589,10.007603 10.351823,9.4456283 10.351823,8.6651038 V 7.6972581 q 0,-0.8117408 -0.5775842,-1.3893281 Q 9.1966535,5.7303469 8.4005215,5.7459551 7.6043905,5.7615632 7.0268049,6.30793 6.4492192,6.8542969 6.4492192,7.6972581 v 0.9678457 q 0,0.7805245 0.5463647,1.3424992 -0.5931956,0.327818 -0.9990667,0.87418 -0.4058709,0.546367 -0.5151434,1.202002 z"
       id="path1"
       style="stroke-width:0.487825" />
  </g>
</svg>
