<?xml version="1.0" encoding="UTF-8" standalone="no"?>
<!-- Created with Inkscape (http://www.inkscape.org/) -->

<svg
   width="128"
   height="128"
   viewBox="0 0 33.866666 33.866667"
   version="1.1"
   id="svg1"
   xmlns="http://www.w3.org/2000/svg"
   xmlns:svg="http://www.w3.org/2000/svg">
  <defs
     id="defs1" />
  <g
     id="layer1">
    <path
       style="fill:#f05a3b;stroke-width:0.0452127;fill-opacity:1"
       d="M 15.567384,32.360735 C 11.88176,31.952605 8.6937287,30.432263 6.1401062,27.864955 4.1800377,25.894386 2.8048413,23.461114 2.116369,20.745353 1.8002825,19.49852 1.6703623,18.406032 1.670099,16.992712 1.669877,15.763481 1.7347147,15.086845 1.9625713,13.940859 2.9736659,8.8556235 6.5730101,4.5433554 11.38953,2.6466894 c 1.920165,-0.7561299 3.619873,-1.0742493 5.741557,-1.0746002 2.21825,-3.617e-4 4.237299,0.4222884 6.241672,1.3066017 2.581697,1.1390285 4.931886,3.1048028 6.522704,5.4558067 3.429432,5.0682204 3.542505,11.6961754 0.287815,16.8706384 -2.438879,3.877447 -6.406638,6.432077 -11.021492,7.096162 -0.592241,0.08523 -3.00171,0.125062 -3.594402,0.05943 z m -0.03047,-1.696648 c -0.738626,-0.554011 -1.129348,-1.236047 -1.229528,-2.14624 -0.03946,-0.358505 -0.01199,-0.76532 0.06521,-0.967998 0.08199,-0.215066 0.305759,-0.47635 0.521877,-0.609329 0.226779,-0.139528 0.232266,-0.140573 0.203039,-0.03832 -0.20903,0.731291 -0.20537,1.011797 0.01917,1.469991 0.173452,0.353926 0.621697,0.818553 0.941576,0.975979 1.374951,0.67667 2.933519,-0.109981 3.473318,-1.75311 0.101512,-0.30899 0.119286,-0.444055 0.122033,-0.926856 0.0039,-0.67394 -0.05916,-0.942774 -0.378162,-1.61427 -0.292985,-0.616717 -0.55913,-0.982414 -1.129222,-1.551608 -0.53926,-0.538417 -0.989796,-0.890593 -2.284979,-1.78614 -1.864016,-1.288873 -2.552872,-1.829525 -3.326862,-2.611129 -1.048333,-1.058644 -1.826815,-2.282087 -2.250316,-3.536551 -0.6138511,-1.8183 -0.5838748,-3.677779 0.09429,-5.8487347 0.188685,-0.6040326 0.340107,-0.8653383 0.501447,-0.8653383 0.112708,0 0.131943,0.2206722 0.139759,1.602981 0.0071,1.25443 0.0131,1.339488 0.134196,1.8996 0.176465,0.816206 0.346067,1.308092 0.686426,1.990753 0.396152,0.794568 0.789497,1.333534 1.489161,2.040467 0.873787,0.882876 1.080613,1.025585 3.910887,2.698441 0.995495,0.588398 1.570169,0.989389 2.206934,1.539933 1.537463,1.32928 2.437829,2.761612 2.74619,4.368726 0.117001,0.609783 0.137394,1.57171 0.04516,2.130112 -0.196044,1.187023 -0.729613,2.195659 -1.610929,3.045245 -0.220108,0.212189 -0.384798,0.385792 -0.36598,0.385792 0.07391,0 1.170588,-0.325522 1.517149,-0.450327 0.657965,-0.236953 0.855118,-0.321693 1.523278,-0.654731 3.45234,-1.720806 6.038541,-4.778435 7.137468,-8.438524 0.42526,-1.416378 0.566189,-2.424144 0.565359,-4.042801 -6.6e-4,-1.301672 -0.04122,-1.72474 -0.27518,-2.870621 C 29.919461,10.13104 27.232086,6.5881841 23.568459,4.6585686 22.145181,3.9089358 20.226791,3.3101432 18.822678,3.177256 l -0.339095,-0.032072 0.276575,0.209009 c 0.646643,0.488682 1.046093,1.2191178 1.14607,2.0956941 0.07216,0.6327421 -0.03431,1.073598 -0.341367,1.4134832 -0.139898,0.1548456 -0.4457,0.363417 -0.532834,0.363417 -0.01112,0 0.0079,-0.1067987 0.04243,-0.237366 C 19.293791,6.1596531 19.15337,5.4304897 18.683446,4.9589742 18.311658,4.5859325 17.87576,4.4245948 17.240232,4.4248126 16.283667,4.4251373 15.592015,4.7880848 15.060533,5.5686192 14.5595,6.3044298 14.397171,7.2361037 14.617305,8.1125037 c 0.188855,0.7519111 0.735477,1.6481256 1.430486,2.3453953 0.476441,0.477989 0.758459,0.697049 2.18712,1.69885 1.997725,1.400847 2.624367,1.902253 3.535808,2.829167 0.510631,0.519298 0.764605,0.826084 1.127654,1.362138 0.713643,1.053726 1.23663,2.480267 1.392655,3.798723 0.06354,0.536859 0.06492,1.652051 0.0026,2.165881 -0.101416,0.837673 -0.49332,2.155248 -0.793296,2.667114 -0.126609,0.216047 -0.165369,0.217027 -0.27403,0.0067 -0.06319,-0.122185 -0.06553,-0.219746 -0.01983,-0.824861 0.144932,-1.916719 -0.282119,-3.760273 -1.21038,-5.224832 -0.840044,-1.325378 -1.952994,-2.296205 -3.874401,-3.37963 -0.422706,-0.238374 -1.033077,-0.59617 -1.356348,-0.795118 -3.154144,-1.941071 -4.58725,-3.867145 -4.824193,-6.4836419 -0.160118,-1.7681548 0.366368,-3.2849835 1.541271,-4.4404354 0.23899,-0.2350366 0.402224,-0.4149678 0.362742,-0.399845 -0.03948,0.015034 -0.302275,0.091465 -0.583988,0.1696606 -2.268158,0.6295544 -4.48719,1.9649725 -6.1728953,3.7148642 -2.0840171,2.163375 -3.3623854,4.7966435 -3.8055372,7.8388985 -0.060443,0.414948 -0.079255,0.845607 -0.07998,1.831111 -0.00107,1.427597 0.064994,2.051073 0.3392148,3.202174 1.2380813,5.197098 5.3188258,9.220247 10.5326747,10.384004 0.69417,0.154932 1.172363,0.232082 1.507318,0.243159 l 0.173015,0.0056 z"
       id="path1" />
  </g>
</svg>
